<svg xmlns="http://www.w3.org/2000/svg" width="310" height="310" viewBox="0 0 31 31"><path d="M1 1h7v7h-7zM9 1h8v1h-2v1h-2v1h-2v-1h1v-1h-2v1h-1zM19 1h1v2h-1zM21 1h1v2h-1zM23 1h7v7h-7zM2 2v5h5v-5zM17 2h1v2h-1zM24 2v5h5v-5zM3 3h3v3h-3zM20 3h1v1h1v5h-1v1h-1v3h-1v-2h-1v-1h-1v1h-2v1h-3v-1h-1v2h2v2h-1v-1h-2v-5h-1v-2h1v1h1v-1h-1v-2h1v1h1v2h1v2h1v-1h1v1h1v-2h1v-1h-1v-1h1v-1h1v3h1v1h1v-1h1v-1h-1v-1h-1v-1h1zM25 3h3v3h-3zM9 4h1v1h-1zM15 4h2v1h-1v1h-1zM12 5h1v1h-1zM14 6h1v1h-1zM13 7h1v1h-1zM15 7h1v1h-1zM19 7h1v1h-1zM1 9h1v1h-1zM3 9h2v1h-2zM6 9h3v1h-2v1h1v1h-1v1h1v1h-1v1h-1v1h1v1h1v1h-1v1h-1v-1h-2v-1h1v-2h-1v1h-1v-2h1v-1h1v-1h1zM11 9v1h1v-1zM23 9h1v2h-1zM26 9h1v1h1v-1h2v2h-1v2h-1v-1h-4v-1h1v-1h1zM21 10h1v1h1v1h1v1h-2v-1h-1zM2 11h3v1h-2v2h-1zM17 11h1v2h-2v-1h1zM8 12h1v1h-1zM15 13h1v2h-1zM18 13h1v1h1v1h1v1h-1v2h-2v-1h1v-1h-1v-1h-1v-1h1zM20 13h1v1h-1zM27 13h1v2h1v-2h1v4h-1v1h-1v-2h-1zM1 14h1v2h-1zM8 14h2v1h-2zM22 14h2v1h2v1h1v3h1v1h2v3h-1v-2h-1v3h-2v3h-1v-1h-2v1h-1v1h-1v-4h-1v-1h1v-5h1v-1h-1v-1h1zM7 15h1v1h-1zM10 15h2v1h-2zM14 15h1v1h-1zM2 16h1v2h-1zM8 16h2v1h-2zM12 16h2v2h-1v-1h-1zM15 16h2v1h-1v2h4v1h-1v1h-2v-1h-1v2h-2v-3h1zM11 17h1v3h1v2h-2v-1h-1v2h1v1h-1v1h-1v-4h-1v-1h3v-1h-3v-1h3zM23 17v2h1v1h-1v1h1v-1h1v1h1v2h1v-2h-1v-3h-1v1h-1v-2zM29 18h1v1h-1zM1 19h1v1h-1zM3 19h2v1h1v2h-1v-1h-1v-1h-1zM7 19h1v1h-1zM2 21h2v1h-2zM7 21h1v1h-1zM19 21h1v2h-1zM17 22h1v1h1v1h-2zM22 22v3h3v-3zM1 23h7v7h-7zM12 23h2v1h-1v1h-2v-1h1zM15 23h1v1h1v1h2v1h-1v1h2v2h2v1h-3v-2h-1v1h-1v-3h-1v-1h-2v-1h1zM23 23h1v1h-1zM2 24v5h5v-5zM19 24h1v1h-1zM3 25h3v3h-3zM13 25h1v1h-1zM27 25h2v1h-2zM9 26h2v1h1v1h-1v1h-1v-1h-1zM14 26h1v2h-1zM29 26h1v2h-1zM23 27h1v1h1v2h-2v-1h-1v-1h1zM26 27h1v2h-1zM12 28h2v1h-1v1h-1zM15 28h1v2h-2v-1h1zM28 28h1v2h-1zM9 29h1v1h-1z"/></svg>